<svg xmlns="http://www.w3.org/2000/svg" viewBox="0 0 64 64"><path d="M48.5 31A2.5 2.5 0 0 0 46 33.5l0 21a2.5 2.5 0 1 0 5 0l0-21A2.5 2.5 0 0 0 48.5 31zM55 35a2.006 2.006 0 0 0-2 2V51a2 2 0 0 0 4 0V37A2.007 2.007 0 0 0 55 35zM15.5 31A2.5 2.5 0 0 0 13 33.5l0 21a2.5 2.5 0 0 0 5 0l0-21A2.5 2.5 0 0 0 15.5 31z" fill="#d85b53" class="color000000 svgShape"></path><rect width="24" height="4" x="20.001" y="42" fill="#d85b53" class="color000000 svgShape"></rect><path d="M9,35a2,2,0,0,0-2,2V51a2,2,0,1,0,4,0V37A2.006,2.006,0,0,0,9,35Z" fill="#d85b53" class="color000000 svgShape"></path><rect width="2" height="6" x="3.001" y="41.003" fill="#d85b53" class="color000000 svgShape"></rect><rect width="2" height="6" x="59.001" y="40.997" fill="#d85b53" class="color000000 svgShape"></rect><path d="M32,34A14,14,0,1,0,18,20,14.016,14.016,0,0,0,32,34ZM32,8A12,12,0,1,1,20,20,12.014,12.014,0,0,1,32,8Z" fill="#d85b53" class="color000000 svgShape"></path><path d="M22.049,21A10.011,10.011,0,0,0,31,29.95V29h2v.95A10.013,10.013,0,0,0,41.949,21H41V19h.95A10.012,10.012,0,0,0,33,10.05V11H31v-.95A10.012,10.012,0,0,0,22.049,19H23v2ZM31,14h2v5h5v2H32a1,1,0,0,1-1-1Z" fill="#d85b53" class="color000000 svgShape"></path></svg>